HIERARCHY
ROOT Hips
{
	OFFSET	0.00  0.00  0.00 
	CHANNELS 6 Xposition Yposition Zposition Xrotation Zrotation Yrotation
	JOINT Abdomen
	{
		OFFSET	0.00 0.00 0.00
		CHANNELS 3 Xrotation Zrotation Yrotation
		JOINT Chest
		{
			OFFSET	0.00 5.01 -1.89
			CHANNELS 3 Xrotation Zrotation Yrotation
			JOINT Neck
			{
				OFFSET	0.00 10.60 0.39
				CHANNELS 3 Xrotation Zrotation Yrotation
				JOINT Head
				{
					OFFSET	0.00 3.50 0.53
					CHANNELS 3 Xrotation Zrotation Yrotation
					End Site
					{
						OFFSET 0.00 10.35 0.00
					}
				}
			}
			JOINT LeftCollar
			{
				OFFSET	0.60 8.32 0.78
				CHANNELS 3 Xrotation Zrotation Yrotation
				JOINT LeftUpArm
				{
					OFFSET	6.42 0.01 -0.33
					CHANNELS 3 Xrotation Zrotation Yrotation
					JOINT LeftLowArm
					{
						OFFSET	10.55 0.03 0.13
						CHANNELS 3 Xrotation Zrotation Yrotation
						JOINT LeftHand
						{
							OFFSET	11.04 0.32 0.04
							CHANNELS 3 Xrotation Zrotation Yrotation
							End Site
							{
								OFFSET 10.35 0.00 0.00
							}
						}
					}
				}
			}
			JOINT RightCollar
			{
				OFFSET	-0.60 8.32 0.78
				CHANNELS 3 Xrotation Zrotation Yrotation
				JOINT RightUpArm
				{
					OFFSET	-6.42 0.01 -0.33
					CHANNELS 3 Xrotation Zrotation Yrotation
					JOINT RightLowArm
					{
						OFFSET	-10.55 0.03 0.13
						CHANNELS 3 Xrotation Zrotation Yrotation
						JOINT RightHand
						{
							OFFSET	-11.04 0.32 0.04
							CHANNELS 3 Xrotation Zrotation Yrotation
							End Site
							{
								OFFSET -10.35 0.00 0.00
							}
						}
					}
				}
			}
		}
	}
	JOINT LeftUpLeg
	{
		OFFSET	4.50 -6.40 -1.83
		CHANNELS 3 Xrotation Zrotation Yrotation
		JOINT LeftLowLeg
		{
			OFFSET	-1.36 -18.91 1.18
			CHANNELS 3 Xrotation Zrotation Yrotation
			JOINT LeftFoot
			{
				OFFSET	-0.65 -17.21 -0.31
				CHANNELS 3 Xrotation Zrotation Yrotation
				End Site
				{
					OFFSET 0.00 0.00 10.35
				}
			}
		}
	}
	JOINT RightUpLeg
	{
		OFFSET	-4.50 -6.40 -1.83
		CHANNELS 3 Xrotation Zrotation Yrotation
		JOINT RightLowLeg
		{
			OFFSET	1.36 -18.91 1.18
			CHANNELS 3 Xrotation Zrotation Yrotation
			JOINT RightFoot
			{
				OFFSET	0.65 -17.21 -0.31
				CHANNELS 3 Xrotation Zrotation Yrotation
				End Site
				{
					OFFSET 0.00 0.00 10.35
				}
			}
		}
	}
}
MOTION
Frames:     28
Frame Time: 0.066667
 1.21	41.51	-6.54	12.18	 8.87	-21.87	12.31	-19.31	12.36	0.0	0.0	0.0	-38.00	 4.22	11.59	0.0	0.0	0.0	0.0	0.0	0.0	36.29	-26.95	-73.32	-3.69	 0.66	 4.21	-43.63	34.37	 1.81	0.0	0.0	0.0	51.22	30.87	76.84	-20.47	 2.17	 2.79	-34.00	-64.92	13.85	-25.07	-5.15	 6.79	 1.03	-8.58	 2.53	 8.81	11.64	16.35	-58.80	 6.73	 9.42	61.41	-17.42	-1.86	30.18	 0.97	 3.31
 1.42	41.62	-6.33	10.76	 9.17	-19.83	 8.10	-17.22	13.17	0.0	0.0	0.0	-30.59	 4.10	10.06	0.0	0.0	0.0	0.0	0.0	0.0	42.61	-30.26	-72.17	-5.30	 1.30	 4.42	-41.77	33.81	 1.46	0.0	0.0	0.0	55.10	34.72	75.19	-19.18	 1.55	 2.75	-29.66	-64.00	12.06	-21.94	-5.13	 6.36	 1.27	-8.74	 3.69	 7.31	11.63	14.71	-55.76	 6.30	 9.86	62.05	-16.51	-1.81	29.97	 1.42	 3.20
 1.41	41.94	-5.94	 8.25	 9.87	-17.48	 1.90	-14.16	15.00	0.0	0.0	0.0	-19.13	 4.45	 7.56	0.0	0.0	0.0	0.0	0.0	0.0	52.59	-35.69	-71.08	-7.80	 2.31	 4.67	-38.82	32.96	 0.87	0.0	0.0	0.0	61.19	40.97	73.30	-17.05	 0.63	 2.58	-23.11	-62.49	 9.65	-16.67	-5.05	 6.69	 1.53	-8.99	 5.66	 4.83	11.28	11.79	-50.85	 6.00	11.26	63.41	-15.02	-1.97	29.91	 2.20	 3.33
 0.50	43.41	-5.22	 6.55	 6.93	-18.45	-2.54	-9.08	18.40	0.0	0.0	0.0	-10.33	 6.50	 5.79	0.0	0.0	0.0	0.0	0.0	0.0	59.72	-40.43	-69.42	-9.98	 3.29	 4.89	-36.43	32.90	 0.26	0.0	0.0	0.0	67.15	43.60	73.91	-14.76	 1.26	 2.29	-17.78	-61.16	 7.73	-11.51	-1.02	 9.76	 1.46	-9.17	 7.44	 2.60	10.20	 9.19	-46.94	 9.37	11.45	66.26	-13.29	-2.42	28.38	 5.00	 5.35
-1.22	43.54	-5.26	 8.79	-0.53	-19.35	-6.15	-1.17	18.85	0.0	0.0	0.0	-7.14	 8.99	 4.91	0.0	0.0	0.0	0.0	0.0	0.0	63.68	-41.27	-67.33	-10.41	 2.98	 4.84	-35.75	34.89	-0.55	0.0	0.0	0.0	71.65	40.90	76.28	-10.22	 1.87	 2.50	-15.33	-60.55	 6.92	-9.60	 7.59	11.64	 1.19	-9.57	 8.07	 1.15	 9.31	 7.90	-45.69	14.24	 5.59	66.68	-12.95	-1.16	21.89	 5.33	 6.51
-2.68	41.98	-5.68	11.75	-10.88	-20.28	-2.37	12.85	13.87	0.0	0.0	0.0	-9.73	 5.79	10.72	0.0	0.0	0.0	0.0	0.0	0.0	73.92	-42.71	-73.29	-11.23	 3.07	 4.04	-35.53	42.67	-4.01	0.0	0.0	0.0	67.27	34.77	74.22	-11.28	-0.97	 4.73	-21.26	-62.39	 9.12	-11.38	19.51	11.10	 8.87	-8.30	 6.99	-4.10	 5.97	 7.43	-35.54	19.22	-3.43	52.44	-12.15	 6.60	 8.58	 3.40	 2.98
-2.89	37.40	-6.52	15.00	-8.24	-26.76	 5.94	16.14	19.39	0.0	0.0	0.0	-20.35	-2.37	17.87	0.0	0.0	0.0	0.0	0.0	0.0	76.89	-34.97	-80.91	-14.53	 1.11	 4.74	-42.49	44.39	-4.89	0.0	0.0	0.0	53.83	36.71	64.55	-7.41	-1.14	 5.02	-23.72	-64.83	11.68	-31.33	25.81	14.55	38.77	-5.96	 2.83	-4.33	 2.23	 3.11	-27.25	22.07	 8.58	34.21	-7.44	 3.04	 5.73	 5.60	 4.21
-4.51	39.80	-6.80	16.45	-3.43	-29.09	10.50	13.15	24.99	0.0	0.0	0.0	-28.05	-7.76	16.40	0.0	0.0	0.0	0.0	0.0	0.0	70.31	-28.41	-82.36	-16.15	 1.64	 5.38	-41.27	45.22	-2.09	0.0	0.0	0.0	45.84	34.86	57.29	-11.59	 1.23	 4.05	-28.83	-64.72	12.62	-50.95	26.08	10.68	62.10	 0.72	-1.04	11.64	 0.10	-2.26	-16.86	16.86	19.30	12.25	-3.84	-2.27	 5.03	 6.05	 4.86
-3.70	40.21	-9.01	18.12	-5.19	-31.23	 7.67	13.00	25.97	0.0	0.0	0.0	-24.60	-6.82	12.85	0.0	0.0	0.0	0.0	0.0	0.0	71.64	-32.27	-77.61	-13.34	 5.19	 3.46	-40.97	46.16	-6.24	0.0	0.0	0.0	50.23	40.79	58.67	-9.06	 1.68	 2.76	-25.86	-61.67	10.37	-58.95	22.48	 0.33	70.66	 2.03	 2.62	20.89	-2.25	 1.04	-14.07	18.58	21.72	 0.89	-1.39	 0.24	 3.40	-2.53	-0.17
-3.08	40.02	-10.10	18.29	-9.59	-32.68	 9.76	10.74	24.00	0.0	0.0	0.0	-22.73	-11.26	16.18	0.0	0.0	0.0	0.0	0.0	0.0	69.74	-36.88	-74.61	-12.44	 3.24	 4.80	-43.26	46.56	-5.30	0.0	0.0	0.0	58.00	37.36	74.24	-12.46	 0.51	 2.80	-28.25	-64.97	13.90	-56.53	22.66	-7.90	65.42	 0.49	 4.07	30.21	-0.91	 2.20	-15.19	24.68	16.09	 4.15	-3.48	 3.35	 3.91	-2.62	 1.31
-2.80	40.74	-10.40	16.18	-7.88	-27.16	10.92	 9.18	16.40	0.0	0.0	0.0	-7.64	-23.84	23.08	0.0	0.0	0.0	0.0	0.0	0.0	73.88	-41.71	-80.08	-13.09	 3.26	 6.00	-45.12	45.91	-4.32	0.0	0.0	0.0	51.62	36.52	70.08	-6.68	 2.55	 3.53	-24.29	-67.37	15.45	-59.81	15.37	-13.20	69.18	-1.29	 3.71	33.57	-0.31	 1.28	-15.65	20.93	11.39	 3.13	-3.94	 1.61	 5.18	-4.68	 2.48
-3.56	42.36	-10.98	13.81	 0.32	-16.44	 8.22	 7.56	 8.43	0.0	0.0	0.0	18.99	-11.65	10.42	0.0	0.0	0.0	0.0	0.0	0.0	76.09	-37.90	-82.40	-14.48	-0.62	 6.89	-42.38	43.92	-3.84	0.0	0.0	0.0	45.12	38.72	56.94	-6.67	 1.61	 5.68	-23.49	-63.37	12.58	-60.69	 3.93	-6.12	73.06	 3.71	 0.74	31.52	-1.58	-1.38	-16.15	 8.54	 3.62	-0.76	-1.18	 1.75	 4.71	-5.99	 1.58
-3.92	42.43	-12.60	12.16	 7.35	-10.83	 6.94	 0.21	10.20	0.0	0.0	0.0	 8.75	25.90	-5.93	0.0	0.0	0.0	0.0	0.0	0.0	61.01	-34.30	-73.69	-9.79	 0.72	 6.20	-38.62	43.96	-2.29	0.0	0.0	0.0	57.73	42.68	60.38	-14.49	-0.03	 5.55	-31.30	-63.78	15.80	-50.08	-1.32	-1.26	59.30	-1.32	-1.07	13.96	 2.33	 5.44	-25.60	 1.98	 1.48	13.35	-5.11	 1.03	-0.01	-2.46	-0.25
-3.30	41.05	-11.62	11.71	11.40	-7.32	 7.78	-5.40	12.44	0.0	0.0	0.0	-39.22	22.60	-23.56	0.0	0.0	0.0	0.0	0.0	0.0	49.65	-28.63	-71.70	-7.43	 2.72	 5.80	-38.63	46.13	-3.96	0.0	0.0	0.0	69.08	46.18	68.95	-16.41	 1.31	 4.18	-42.74	-64.54	19.38	-32.71	-5.82	 4.06	29.90	-4.30	 1.80	 7.74	 5.06	 3.76	-43.92	-3.52	-0.27	44.58	-9.97	 3.28	 5.80	 3.23	 0.18
-3.48	41.47	-12.25	14.25	15.14	-5.42	 2.50	-9.23	12.40	0.0	0.0	0.0	-42.36	21.99	-21.20	0.0	0.0	0.0	0.0	0.0	0.0	46.94	-29.89	-68.07	-8.22	 2.67	 5.14	-40.78	44.45	-4.00	0.0	0.0	0.0	71.41	50.77	69.41	-16.81	 2.92	 2.78	-46.17	-62.62	16.89	-22.54	-10.58	-3.22	 4.03	-7.17	 8.79	 6.90	10.71	 8.75	-58.02	 0.51	13.21	66.31	-12.15	-1.89	30.19	 7.37	 4.67
-3.50	42.48	-12.49	16.02	10.28	-9.17	 1.16	-7.42	13.65	0.0	0.0	0.0	-10.27	31.33	-10.64	0.0	0.0	0.0	0.0	0.0	0.0	51.63	-30.72	-68.22	-9.30	 1.59	 4.94	-47.13	42.57	-5.02	0.0	0.0	0.0	71.78	44.98	72.18	-22.06	 1.90	 2.77	-46.48	-61.80	16.87	-22.05	-2.65	 5.54	 1.84	-9.43	 3.22	 5.55	13.37	 7.78	-58.00	 9.07	12.06	66.01	-15.69	-2.82	43.90	 4.34	 5.46
-2.73	42.13	-12.76	17.37	 8.23	-9.02	 3.08	-5.14	11.34	0.0	0.0	0.0	19.43	21.12	 0.23	0.0	0.0	0.0	0.0	0.0	0.0	56.11	-32.59	-75.26	-10.95	 0.44	 5.95	-43.88	40.48	 0.29	0.0	0.0	0.0	66.64	43.83	71.29	-19.97	-0.36	 4.90	-45.31	-63.85	19.52	-25.30	-1.28	 2.82	 3.85	-6.78	 7.54	 6.31	 6.07	 5.32	-56.06	10.02	12.00	59.18	-15.26	-2.21	43.48	 4.54	 4.19
-3.40	40.88	-12.77	17.09	13.07	-4.82	 4.03	-8.88	10.13	0.0	0.0	0.0	17.91	-6.69	 4.51	0.0	0.0	0.0	0.0	0.0	0.0	53.63	-29.04	-78.94	-14.08	 0.06	 5.79	-42.19	39.80	 2.11	0.0	0.0	0.0	72.16	44.97	74.85	-21.09	 1.77	 1.45	-46.31	-63.41	18.98	-24.84	-7.22	 2.02	 2.66	-6.04	 7.57	 6.48	 5.10	 4.06	-61.12	 1.79	13.03	63.63	-10.66	-8.25	39.88	 1.54	 8.30
-3.54	41.59	-13.23	16.98	15.00	-10.09	-0.43	-11.30	15.43	0.0	0.0	0.0	 2.17	-15.10	 8.01	0.0	0.0	0.0	0.0	0.0	0.0	53.10	-31.65	-71.07	-11.30	 2.57	 2.61	-43.90	36.25	-0.71	0.0	0.0	0.0	73.53	42.08	79.75	-25.76	 5.68	-3.64	-46.43	-62.55	15.51	-23.93	-6.78	 5.79	-1.27	-8.21	 7.97	 6.73	10.38	 6.65	-60.68	 1.48	 8.60	65.34	-17.59	-0.52	35.46	 4.99	11.42
-3.12	43.39	-13.52	16.63	 6.96	-21.65	 3.23	-3.68	13.20	0.0	0.0	0.0	-15.13	-11.34	10.43	0.0	0.0	0.0	0.0	0.0	0.0	64.68	-44.31	-65.44	-13.91	 0.87	 5.70	-53.69	35.05	 2.90	0.0	0.0	0.0	54.06	33.15	78.71	-18.83	 3.60	 0.63	-38.24	-63.57	16.01	-31.59	 7.04	10.45	19.27	-6.82	 3.29	 1.86	 6.95	 9.53	-47.58	10.38	 8.82	49.46	-11.26	 6.15	22.84	-0.21	 4.86
-2.70	42.85	-12.55	19.48	-1.14	-27.59	 7.45	 3.70	13.44	0.0	0.0	0.0	-25.27	-6.44	 9.45	0.0	0.0	0.0	0.0	0.0	0.0	75.17	-51.19	-70.52	-13.73	 0.71	 6.32	-58.04	35.97	 4.41	0.0	0.0	0.0	39.40	24.17	79.79	-19.33	 2.13	 2.02	-34.96	-65.57	16.93	-51.41	18.99	 1.01	52.52	-3.17	-2.37	10.41	 1.75	 4.95	-31.88	18.49	 7.87	19.97	-6.93	 8.35	13.45	 1.86	 4.99
-1.98	42.09	-13.54	19.45	-9.05	-35.26	 7.80	 4.83	14.31	0.0	0.0	0.0	-22.78	-5.04	 9.19	0.0	0.0	0.0	0.0	0.0	0.0	80.79	-55.47	-71.12	-12.54	 0.07	 8.14	-57.64	37.93	 5.46	0.0	0.0	0.0	36.74	25.17	77.01	-17.51	 1.62	 3.26	-30.75	-65.13	15.13	-57.73	25.67	-6.73	68.63	 2.88	-0.88	23.73	-2.12	-3.59	-16.78	24.14	10.28	 3.07	-2.12	 6.16	 7.45	-4.24	 6.80
-1.89	40.94	-13.66	18.04	-9.06	-34.97	 8.87	 5.72	17.08	0.0	0.0	0.0	-19.95	-11.01	14.04	0.0	0.0	0.0	0.0	0.0	0.0	69.03	-50.58	-65.28	-14.26	 1.03	 5.75	-55.38	38.13	 7.87	0.0	0.0	0.0	34.68	33.67	68.80	-12.97	 2.60	 3.14	-29.20	-64.03	13.45	-58.21	20.58	-11.29	70.25	 2.00	 1.59	28.31	-1.43	 0.98	-14.22	23.87	13.41	 2.23	-2.30	 6.72	 4.95	-6.88	 2.92
-2.32	41.82	-14.44	18.42	-4.04	-23.95	10.26	 3.66	17.05	0.0	0.0	0.0	-5.51	-23.79	20.16	0.0	0.0	0.0	0.0	0.0	0.0	64.66	-36.98	-68.40	-19.25	 2.53	 5.03	-56.18	36.02	 1.45	0.0	0.0	0.0	35.37	35.10	67.87	-15.63	 4.95	 0.48	-35.40	-65.29	12.17	-61.39	10.62	-12.66	64.32	 1.43	 1.32	33.81	 0.38	 0.51	-22.88	18.55	11.09	 5.91	-4.30	 3.87	 5.78	-3.69	-2.03
-2.21	42.13	-14.80	18.54	-3.25	-20.24	11.09	 2.35	16.61	0.0	0.0	0.0	19.39	-10.17	 8.36	0.0	0.0	0.0	0.0	0.0	0.0	62.33	-36.20	-66.90	-16.77	 3.28	 4.68	-57.40	35.25	 0.83	0.0	0.0	0.0	37.25	34.19	75.41	-14.81	 3.99	 1.00	-31.60	-65.74	13.32	-61.87	12.82	-5.93	61.96	 0.78	 3.36	33.84	 6.18	-4.39	-25.80	15.57	10.08	 7.33	-3.66	 2.23	 6.77	-0.04	-1.46
-1.97	41.17	-14.77	21.20	-6.39	-30.31	 9.84	 6.30	17.81	0.0	0.0	0.0	 8.97	26.21	-0.80	0.0	0.0	0.0	0.0	0.0	0.0	68.17	-51.09	-67.00	-11.71	-1.72	 8.29	-59.95	33.94	 5.66	0.0	0.0	0.0	34.47	26.39	82.64	-19.35	 3.61	 1.13	-27.25	-65.42	13.00	-68.02	26.64	-6.90	72.93	-1.29	 2.63	27.64	 2.75	-9.81	-22.57	23.02	13.37	 3.05	-2.83	 6.51	 6.05	-5.12	-1.44
-2.33	40.65	-14.93	20.91	-8.08	-32.15	10.17	 9.75	18.50	0.0	0.0	0.0	-38.56	23.98	-14.87	0.0	0.0	0.0	0.0	0.0	0.0	69.62	-49.62	-69.02	-13.38	-2.46	 9.73	-60.93	33.45	 6.49	0.0	0.0	0.0	34.30	33.89	73.43	-10.67	 3.15	 1.45	-22.17	-65.39	 8.33	-67.95	29.17	-7.91	74.18	-1.08	 1.12	27.44	 2.16	-9.35	-19.33	23.05	13.71	-0.49	-0.34	 5.48	 5.63	-0.57	-0.74
-2.50	41.85	-14.95	18.60	-1.35	-16.13	10.97	 4.33	17.86	0.0	0.0	0.0	-46.63	19.38	-17.66	0.0	0.0	0.0	0.0	0.0	0.0	45.86	-31.97	-74.69	-12.88	 1.37	 5.68	-49.04	32.49	 1.33	0.0	0.0	0.0	37.26	38.10	55.81	-15.15	 3.19	 1.56	-34.45	-63.18	12.28	-59.42	12.43	-3.98	58.17	-1.71	-2.43	22.99	 2.57	-2.63	-27.93	12.91	 5.17	10.80	-4.67	 1.83	 0.47	 0.96	-2.37
